<svg viewBox="0 0 575 575" class="roots-wrapper"><g transform="rotate(0 0 0)"><svg viewBoxSize="575" data-root-id="5930245544926" xmlns="http://www.w3.org/2000/svg" viewBox="-0.09074713289737701 -17.80215072631836 177.00131225585938 208.7391815185547" height="200" width="169.59086767311305" y="187.5" x="202.705" preserveAspectRatio="xMinYMin" zoom="1" editorType="buyer" data-layer-role="icon" style="position: absolute; height: 200px; width: 169.591px; top: 187.5px; left: 202.705px;"><path id="Layer_1-2" dataName="Layer 1" class="cls-1" d="M82.42-14.42h0a57.9,57.9,0,0,1,57.9,57.9v144.1a0,0,0,0,1,0,0h0a57.9,57.9,0,0,1-57.9-57.9V-14.42a0,0,0,0,1,0,0Z" transform="translate(247.46 123.7) rotate(157.4)" name="Layer 1" zoom="1" data-layer-id="6996057844927" style="fill: rgb(0, 0, 0); fill-opacity: 1;"></path><path id="Layer_1-2" dataName="Layer 1" class="cls-1" d="M65.6,143.92c-3.07-7.37-5.58-14.94-8-22.53a29.5,29.5,0,1,0-55,21A29.85,29.85,0,0,0,7,149.47a57.9,57.9,0,0,0,69,19.22Z" name="Layer 2" zoom="1" data-layer-id="3580743744927" style="fill: rgb(0, 0, 0); fill-opacity: 1;"></path><svg viewBoxSize="575" data-root-id="5930245544926" xmlns="http://www.w3.org/2000/svg" viewBox="-0.09074713289737701 -17.80215072631836 177.00131225585938 208.7391815185547" height="200" width="169.59086767311305" y="187.5" x="202.705" preserveAspectRatio="xMinYMin" zoom="1" editorType="buyer" data-layer-role="icon" style="position: absolute; height: 200px; width: 169.591px; top: 187.5px; left: 202.705px;"><path id="Layer_1-2" dataName="Layer 1" class="cls-1" d="M82.42-14.42h0a57.9,57.9,0,0,1,57.9,57.9v144.1a0,0,0,0,1,0,0h0a57.9,57.9,0,0,1-57.9-57.9V-14.42a0,0,0,0,1,0,0Z" transform="translate(247.46 123.7) rotate(157.4)" name="Layer 1" zoom="1" data-layer-id="6996057844927" style="fill: rgb(0, 0, 0); fill-opacity: 1;"></path><path id="Layer_1-2" dataName="Layer 1" class="cls-1" d="M65.6,143.92c-3.07-7.37-5.58-14.94-8-22.53a29.5,29.5,0,1,0-55,21A29.85,29.85,0,0,0,7,149.47a57.9,57.9,0,0,0,69,19.22Z" name="Layer 2" zoom="1" data-layer-id="3580743744927" style="fill: rgb(0, 0, 0); fill-opacity: 1;"></path></svg></svg><svg viewBoxSize="575" data-root-id="5930245544926" xmlns="http://www.w3.org/2000/svg" viewBox="-0.09074713289737701 -17.80215072631836 177.00131225585938 208.7391815185547" height="200" width="169.59086767311305" y="187.5" x="202.705" preserveAspectRatio="xMinYMin" zoom="1" editorType="buyer" data-layer-role="icon" style="position: absolute; height: 200px; width: 169.591px; top: 187.5px; left: 202.705px;"><path id="Layer_1-2" dataName="Layer 1" class="cls-1" d="M82.42-14.42h0a57.9,57.9,0,0,1,57.9,57.9v144.1a0,0,0,0,1,0,0h0a57.9,57.9,0,0,1-57.9-57.9V-14.42a0,0,0,0,1,0,0Z" transform="translate(247.46 123.7) rotate(157.4)" name="Layer 1" zoom="1" data-layer-id="6996057844927" style="fill: rgb(0, 0, 0); fill-opacity: 1;"></path><path id="Layer_1-2" dataName="Layer 1" class="cls-1" d="M65.6,143.92c-3.07-7.37-5.58-14.94-8-22.53a29.5,29.5,0,1,0-55,21A29.85,29.85,0,0,0,7,149.47a57.9,57.9,0,0,0,69,19.22Z" name="Layer 2" zoom="1" data-layer-id="3580743744927" style="fill: rgb(0, 0, 0); fill-opacity: 1;"></path><svg viewBoxSize="575" data-root-id="5930245544926" xmlns="http://www.w3.org/2000/svg" viewBox="-0.09074713289737701 -17.80215072631836 177.00131225585938 208.7391815185547" height="200" width="169.59086767311305" y="187.5" x="202.705" preserveAspectRatio="xMinYMin" zoom="1" editorType="buyer" data-layer-role="icon" style="position: absolute; height: 200px; width: 169.591px; top: 187.5px; left: 202.705px;"><path id="Layer_1-2" dataName="Layer 1" class="cls-1" d="M82.42-14.42h0a57.9,57.9,0,0,1,57.9,57.9v144.1a0,0,0,0,1,0,0h0a57.9,57.9,0,0,1-57.9-57.9V-14.42a0,0,0,0,1,0,0Z" transform="translate(247.46 123.7) rotate(157.4)" name="Layer 1" zoom="1" data-layer-id="6996057844927" style="fill: rgb(0, 0, 0); fill-opacity: 1;"></path><path id="Layer_1-2" dataName="Layer 1" class="cls-1" d="M65.6,143.92c-3.07-7.37-5.58-14.94-8-22.53a29.5,29.5,0,1,0-55,21A29.85,29.85,0,0,0,7,149.47a57.9,57.9,0,0,0,69,19.22Z" name="Layer 2" zoom="1" data-layer-id="3580743744927" style="fill: rgb(0, 0, 0); fill-opacity: 1;"></path></svg></svg></g><g transform="rotate(0 0 0)"><svg viewBoxSize="575" data-root-id="5141066544927" xmlns="http://www.w3.org/2000/svg" y="442.4649963378906" viewBox="0 0 0 0" x="287.505" height="0" width="0" fontUrl="http://fonts.gstatic.com/s/lato/v20/S6uyw4BMUTPHvxk6XweuBCY.ttf" zoom="1" editorType="buyer" data-layer-role="slogan" style="position: absolute; top: 442.465px; width: 0px; height: 0px; left: 287.505px;"><g data-horizontal-grow="center" zoom="1" root="[object Object]" style="fill: rgb(0, 0, 0); fill-opacity: 1;"><path d="" transform="translate(0, 0)"></path></g></svg></g><g transform="rotate(0 0 0)"><svg viewBoxSize="575" data-root-id="2920608244927" xmlns="http://www.w3.org/2000/svg" y="400.395" viewBox="1.840000033378601 15.119999885559082 341.44000244140625 42.06999969482422" x="116.78" height="42.06999969482422" width="341.44000244140625" fontUrl="http://fonts.gstatic.com/s/poppins/v15/pxiByp8kv8JHgFVrLGT9V1tvFP-KUEg.ttf" zoom="1" editorType="buyer" data-layer-role="brandName" style="position: absolute; top: 400.395px; width: 341.44px; height: 42.07px; left: 116.78px;"><g data-horizontal-grow="center" zoom="1" root="[object Object]" style="fill: rgb(0, 0, 0); fill-opacity: 1;"><path d="M29.38 56.70L26.68 49.03L10.96 49.03L8.26 56.70L1.84 56.70L15.28 19.12L22.41 19.12L35.86 56.70L29.38 56.70ZM12.69 44.01L24.95 44.01L18.85 26.57L12.69 44.01ZM47.84 31.37Q49.41 29.21 52.14 27.84Q54.86 26.46 58.21 26.46L58.21 26.46Q62.15 26.46 65.34 28.35Q68.53 30.24 70.36 33.72Q72.20 37.21 72.20 41.69L72.20 41.69Q72.20 46.17 70.36 49.71Q68.53 53.24 65.31 55.22Q62.10 57.19 58.21 57.19L58.21 57.19Q54.76 57.19 52.08 55.84Q49.41 54.49 47.84 52.38L47.84 52.38L47.84 56.70L41.69 56.70L41.69 16.74L47.84 16.74L47.84 31.37ZM65.93 41.69Q65.93 38.61 64.66 36.37Q63.40 34.13 61.32 32.97Q59.24 31.81 56.86 31.81L56.86 31.81Q54.54 31.81 52.46 32.99Q50.38 34.18 49.11 36.45Q47.84 38.72 47.84 41.80L47.84 41.80Q47.84 44.87 49.11 47.17Q50.38 49.46 52.46 50.65Q54.54 51.84 56.86 51.84L56.86 51.84Q59.24 51.84 61.32 50.63Q63.40 49.41 64.66 47.09Q65.93 44.77 65.93 41.69L65.93 41.69ZM76.25 41.69Q76.25 37.21 78.11 33.75Q79.97 30.29 83.19 28.38Q86.40 26.46 90.34 26.46L90.34 26.46Q93.26 26.46 96.09 27.73Q98.93 29.00 100.60 31.10L100.60 31.10L100.60 16.74L106.81 16.74L106.81 56.70L100.60 56.70L100.60 52.22Q99.09 54.38 96.42 55.78Q93.74 57.19 90.29 57.19L90.29 57.19Q86.40 57.19 83.19 55.22Q79.97 53.24 78.11 49.71Q76.25 46.17 76.25 41.69L76.25 41.69ZM100.60 41.80Q100.60 38.72 99.33 36.45Q98.06 34.18 96.01 32.99Q93.96 31.81 91.58 31.81L91.58 31.81Q89.21 31.81 87.16 32.97Q85.10 34.13 83.83 36.37Q82.57 38.61 82.57 41.69L82.57 41.69Q82.57 44.77 83.83 47.09Q85.10 49.41 87.18 50.63Q89.26 51.84 91.58 51.84L91.58 51.84Q93.96 51.84 96.01 50.65Q98.06 49.46 99.33 47.17Q100.60 44.87 100.60 41.80L100.60 41.80ZM135.70 26.95L141.86 26.95L141.86 56.70L135.70 56.70L135.70 53.19Q134.24 55.03 131.89 56.08Q129.55 57.13 126.90 57.13L126.90 57.13Q123.39 57.13 120.61 55.67Q117.83 54.22 116.23 51.35Q114.64 48.49 114.64 44.44L114.64 44.44L114.64 26.95L120.74 26.95L120.74 43.52Q120.74 47.52 122.74 49.65Q124.74 51.79 128.20 51.79L128.20 51.79Q131.65 51.79 133.68 49.65Q135.70 47.52 135.70 43.52L135.70 43.52L135.70 26.95ZM147.91 41.69Q147.91 37.21 149.77 33.75Q151.63 30.29 154.84 28.38Q158.06 26.46 161.95 26.46L161.95 26.46Q165.46 26.46 168.07 27.84Q170.69 29.21 172.26 31.27L172.26 31.27L172.26 26.95L178.47 26.95L178.47 56.70L172.26 56.70L172.26 52.27Q170.69 54.38 167.99 55.78Q165.29 57.19 161.84 57.19L161.84 57.19Q158.00 57.19 154.82 55.22Q151.63 53.24 149.77 49.71Q147.91 46.17 147.91 41.69L147.91 41.69ZM172.26 41.80Q172.26 38.72 170.99 36.45Q169.72 34.18 167.67 32.99Q165.62 31.81 163.24 31.81L163.24 31.81Q160.87 31.81 158.81 32.97Q156.76 34.13 155.49 36.37Q154.22 38.61 154.22 41.69L154.22 41.69Q154.22 44.77 155.49 47.09Q156.76 49.41 158.84 50.63Q160.92 51.84 163.24 51.84L163.24 51.84Q165.62 51.84 167.67 50.65Q169.72 49.46 170.99 47.17Q172.26 44.87 172.26 41.80L172.26 41.80ZM205.52 31.97L192.02 51.68L205.52 51.68L205.52 56.70L184.90 56.70L184.90 51.68L198.45 31.97L184.90 31.97L184.90 26.95L205.52 26.95L205.52 31.97ZM215.14 23.00Q213.46 23.00 212.33 21.87Q211.19 20.74 211.19 19.06L211.19 19.06Q211.19 17.39 212.33 16.25Q213.46 15.12 215.14 15.12L215.14 15.12Q216.76 15.12 217.89 16.25Q219.02 17.39 219.02 19.06L219.02 19.06Q219.02 20.74 217.89 21.87Q216.76 23.00 215.14 23.00L215.14 23.00ZM212.00 26.95L218.16 26.95L218.16 56.70L212.00 56.70L212.00 26.95ZM262.28 26.46Q265.79 26.46 268.57 27.92Q271.35 29.38 272.94 32.24Q274.54 35.10 274.54 39.15L274.54 39.15L274.54 56.70L268.43 56.70L268.43 40.07Q268.43 36.07 266.44 33.94Q264.44 31.81 260.98 31.81L260.98 31.81Q257.53 31.81 255.50 33.94Q253.48 36.07 253.48 40.07L253.48 40.07L253.48 56.70L247.37 56.70L247.37 40.07Q247.37 36.07 245.38 33.94Q243.38 31.81 239.92 31.81L239.92 31.81Q236.47 31.81 234.44 33.94Q232.42 36.07 232.42 40.07L232.42 40.07L232.42 56.70L226.26 56.70L226.26 26.95L232.42 26.95L232.42 30.35Q233.93 28.51 236.25 27.49Q238.57 26.46 241.22 26.46L241.22 26.46Q244.78 26.46 247.59 27.97Q250.40 29.48 251.91 32.35L251.91 32.35Q253.26 29.65 256.12 28.05Q258.98 26.46 262.28 26.46L262.28 26.46ZM295.27 57.19Q291.06 57.19 287.66 55.27Q284.26 53.35 282.31 49.87Q280.37 46.39 280.37 41.80L280.37 41.80Q280.37 37.26 282.37 33.75Q284.36 30.24 287.82 28.35Q291.28 26.46 295.54 26.46L295.54 26.46Q299.81 26.46 303.26 28.35Q306.72 30.24 308.72 33.75Q310.72 37.26 310.72 41.80L310.72 41.80Q310.72 46.33 308.66 49.84Q306.61 53.35 303.07 55.27Q299.54 57.19 295.27 57.19L295.27 57.19ZM295.27 51.84Q297.65 51.84 299.73 50.71Q301.81 49.57 303.10 47.30Q304.40 45.04 304.40 41.80L304.40 41.80Q304.40 38.56 303.16 36.32Q301.91 34.07 299.86 32.94Q297.81 31.81 295.43 31.81L295.43 31.81Q293.06 31.81 291.03 32.94Q289.01 34.07 287.82 36.32Q286.63 38.56 286.63 41.80L286.63 41.80Q286.63 46.60 289.09 49.22Q291.55 51.84 295.27 51.84L295.27 51.84ZM319.90 26.95L328.32 51.19L336.74 26.95L343.28 26.95L331.94 56.70L324.59 56.70L313.31 26.95L319.90 26.95Z" transform="translate(0, 0)"></path></g></svg></g></svg>