<?xml version="1.0" encoding="utf-8"?>
<!-- Generator: Adobe Illustrator 26.0.2, SVG Export Plug-In . SVG Version: 6.00 Build 0)  -->
<svg version="1.1" id="Слой_1" xmlns="http://www.w3.org/2000/svg" xmlns:xlink="http://www.w3.org/1999/xlink" x="0px" y="0px"
	 viewBox="0 0 1366 768" style="enable-background:new 0 0 1366 768;" xml:space="preserve">
<style type="text/css">
	.st0{stroke:#000000;stroke-miterlimit:10;}
</style>
<g>
	<path class="st0" d="M569.5,137.5c20.86-5.46,82.97-19.58,145-1c14.28,4.28,39.66,12.14,66,33c13.22,10.47,22.7,21.06,29,29
		c2.59,3.44,6.45,8.62,11,15c38.92,54.48,56.43,94.61,99,182c10.33,21.21,21.89,44.47,45,91c22.67,45.64,41.42,83.01,54,108
		c-76.41,20.03-130.03,7.24-155-1c-6.76-2.23-17.72-5.9-31-13c-52.37-27.99-77.04-75.21-90-100
		C706.42,411.47,644.21,292.5,569.5,137.5z"/>
	<path class="st0" d="M671.5,596.5c-0.3-0.91-0.69-2.08-1-3c0,0-0.38-1.14-0.72-2.15c-16.3-48.73-58.28-125.85-58.28-125.85
		c-3.95-6.51-7.95-12.84-12-19c-5.73-7.9-17.46-21.75-37-31c-19.38-9.17-36.4-9.08-50-9c-15.84,0.09-36.87,0.21-59,13
		c-22.4,12.94-33.92,31.92-39,42c-2.9,10.23-6.33,28.61,0,49c3.54,11.42,8.89,19.43,12,24c10.56,15.56,23.05,24.94,31,30
		c10.41,7.6,25.12,16.97,44,25c6.15,2.62,32.2,13.36,69,17c33.12,3.27,61.99-0.49,84.15-5.66c1.37-0.32,2.71-0.64,4.02-0.97
		c1.74-0.44,3.44-0.88,5.09-1.32c1.65-0.45,1.82-0.52,3.2-0.89C668.89,597.13,670.46,596.75,671.5,596.5"/>
</g>
</svg>
